# xmcd
#
# Track frame offsets: 
#        150
#        18582
#        29577
#        45604
#        63229
#        79450
#        102619
#        117097
#        130005
#        141713
#        157202
#        167163
#        184442
#        205616
#        222212
#        238493
#        252927
#        265484
#        280487
#        294898
#        307210
#        318022
#
# Disc length: 4421 seconds
#
# Revision: 2
# Processed by: cddbd v1.5.2PL0 Copyright (c) Steve Scherf et al.
# Submitted via: ExactAudioCopyFreeDBPlugin 1.0
#
DISCID=61114316
DTITLE=Johnny Hill - Wieder mal auf Tournee
DYEAR=2006
DGENRE=german Country
TTITLE0=Wieder mal auf Tournee
TTITLE1=Die Arbeit hoert nie auf
TTITLE2=Solang dein Traum dich traegt
TTITLE3=Vergiss deine Traeume
TTITLE4=Unsere kleine Band
TTITLE5=Tommy und Strolch
TTITLE6=Wenn der Brieftraeger klingelt
TTITLE7=Mein Lied fuer dich
TTITLE8=Mehr hinterm Lenkrad als zu Haus
TTITLE9=Lucille
TTITLE10=Komm in meine Welt
TTITLE11=Die Zeit wischt die Schminke aus jedem Gesicht
TTITLE12=Papillon
TTITLE13=Liebe, die in Traeumen lebt
TTITLE14=In dieser Nacht sind wir geborgen
TTITLE15=In dem kleinen Haus am See
TTITLE16=Idole und Freunde
TTITLE17=Ich war immer schon fast oben
TTITLE18=Etwas Liebe am Abend
TTITLE19=Bist du einsam heut Nacht
TTITLE20=Adios Amigo
TTITLE21=Jetzt sage ich euch gute Nacht
EXTD=
EXTT0=
EXTT1=
EXTT2=
EXTT3=
EXTT4=
EXTT5=
EXTT6=
EXTT7=
EXTT8=
EXTT9=
EXTT10=
EXTT11=
EXTT12=
EXTT13=
EXTT14=
EXTT15=
EXTT16=
EXTT17=
EXTT18=
EXTT19=
EXTT20=
EXTT21=
PLAYORDER=
